<!--?xml version="1.0" encoding="utf-8"?-->
<!-- Generator: Adobe Illustrator 18.1.1, SVG Export Plug-In . SVG Version: 6.00 Build 0)  -->

<svg version="1.1" id="_x32_" xmlns="http://www.w3.org/2000/svg" xmlns:xlink="http://www.w3.org/1999/xlink" x="0px" y="0px" viewBox="0 0 512 512" style="width: 256px; height: 256px; opacity: 1;" xml:space="preserve">
<style type="text/css">
	.st0{fill:#4B4B4B;}
</style>
<g>
	<path class="st0" d="M28.159,45.348v421.305c0,25.028,20.319,45.348,45.387,45.348h16.617V0H73.546
		C48.478,0,28.159,20.319,28.159,45.348z"></path>
	<path class="st0" d="M438.454,0H114.167v512h324.288c25.068,0,45.387-20.319,45.387-45.348V45.348
		C483.841,20.319,463.523,0,438.454,0z M290.982,198.856c0.127,33.99-7.991,42.814-21.398,53.402
		c-10.803,8.531-20.049,13.416-20.049,34.592v136.257h-32.472V286.851c0-21.176-9.229-26.062-20.032-34.592
		c-13.408-10.588-21.542-19.413-21.415-53.402c0,0,0-39.072,0-61.202c0-18.476,26.96-19.111,26.96-0.207v64.094
		c0,4.106,3.32,7.419,7.419,7.419h1.97c4.098,0,7.419-3.312,7.419-7.419v-64.387c0-10.564,7.101-13.718,13.916-13.718
		c6.815,0,13.917,3.154,13.917,13.718v64.387c0,4.106,3.336,7.419,7.419,7.419h1.986c4.083,0,7.403-3.312,7.403-7.419v-64.094
		c0-18.904,26.959-18.269,26.959,0.207C290.982,159.784,290.982,198.856,290.982,198.856z M390.462,287.224
		c0,66.064,0,130.824,0,136.257c0,0.238,0,0.405,0,0.405l-0.16-0.405h-32.328v-81.386c-0.667-40.685-30.565-29.668-28.611-91.775
		c1.239-40.017,12.931-87.152,19.826-106.486c10.739-30.097,41.272-23.591,41.272,0
		C390.462,155.312,390.462,221.884,390.462,287.224z"></path>
</g>
</svg>
